<?xml version="1.0" encoding="utf-8"?>
<!-- Generator: Adobe Illustrator 24.0.1, SVG Export Plug-In . SVG Version: 6.00 Build 0)  -->
<svg version="1.2" baseProfile="tiny" id="Layer_1" xmlns="http://www.w3.org/2000/svg" xmlns:xlink="http://www.w3.org/1999/xlink"
	 x="0px" y="0px" viewBox="0 0 25.56 16.43" xml:space="preserve">
<g>
	<g>
		<path fill="#808285" d="M9.52,10.13c0.5,0,0.91,0.1,1.23,0.3c0.32,0.2,0.55,0.47,0.7,0.82c0.15,0.34,0.22,0.73,0.22,1.15v3.67
			c0,0.06-0.02,0.12-0.07,0.17c-0.05,0.05-0.1,0.07-0.17,0.07c-0.07,0-0.13-0.02-0.17-0.07c-0.04-0.05-0.07-0.1-0.07-0.17v-3.62
			c0-0.34-0.06-0.66-0.17-0.94c-0.12-0.28-0.3-0.5-0.55-0.67s-0.58-0.25-0.99-0.25c-0.35,0-0.7,0.08-1.03,0.25s-0.61,0.39-0.83,0.67
			c-0.22,0.28-0.33,0.59-0.33,0.94v3.62c0,0.06-0.02,0.12-0.07,0.17c-0.05,0.05-0.1,0.07-0.17,0.07c-0.07,0-0.13-0.02-0.17-0.07
			c-0.04-0.05-0.07-0.1-0.07-0.17v-5.51c0-0.06,0.02-0.12,0.07-0.17c0.05-0.05,0.1-0.07,0.17-0.07c0.07,0,0.13,0.02,0.17,0.07
			c0.04,0.05,0.07,0.1,0.07,0.17v1.18l-0.3,0.58c0-0.29,0.08-0.56,0.23-0.83c0.15-0.26,0.35-0.5,0.6-0.7s0.52-0.36,0.82-0.48
			C8.93,10.19,9.23,10.13,9.52,10.13z"/>
		<path fill="#808285" d="M18.57,10.32c0.07,0,0.13,0.02,0.17,0.07s0.07,0.1,0.07,0.17v5.51c0,0.06-0.02,0.12-0.07,0.17
			c-0.05,0.05-0.1,0.07-0.17,0.07c-0.07,0-0.13-0.02-0.17-0.07c-0.04-0.05-0.07-0.1-0.07-0.17v-1.7l0.19-0.16
			c0,0.26-0.06,0.52-0.19,0.78c-0.13,0.26-0.3,0.5-0.53,0.72c-0.22,0.22-0.49,0.39-0.79,0.52c-0.3,0.13-0.63,0.2-0.98,0.2
			c-0.54,0-1.01-0.14-1.43-0.42c-0.42-0.28-0.75-0.66-0.99-1.14c-0.24-0.48-0.36-1.02-0.36-1.62c0-0.61,0.12-1.15,0.37-1.61
			c0.24-0.47,0.58-0.84,1-1.1s0.89-0.4,1.42-0.4c0.34,0,0.67,0.06,0.97,0.19c0.3,0.12,0.57,0.3,0.8,0.52
			c0.23,0.22,0.41,0.49,0.53,0.79s0.19,0.63,0.19,0.98l-0.19-0.3v-1.74c0-0.06,0.02-0.12,0.07-0.17S18.5,10.32,18.57,10.32z
			 M16.05,15.97c0.45,0,0.85-0.12,1.2-0.35s0.63-0.56,0.83-0.97c0.2-0.41,0.3-0.88,0.3-1.4c0-0.5-0.1-0.95-0.3-1.35
			c-0.2-0.4-0.48-0.72-0.83-0.96c-0.35-0.24-0.75-0.35-1.2-0.35c-0.44,0-0.84,0.11-1.19,0.34s-0.63,0.54-0.83,0.94
			c-0.2,0.4-0.31,0.86-0.31,1.38s0.1,0.99,0.3,1.4c0.2,0.41,0.48,0.74,0.83,0.97S15.6,15.97,16.05,15.97z"/>
		<path fill="#808285" d="M23.42,10.25c0.48,0,0.88,0.1,1.19,0.31c0.32,0.21,0.55,0.49,0.71,0.84c0.16,0.35,0.23,0.74,0.23,1.16v3.5
			c0,0.06-0.02,0.12-0.07,0.17c-0.05,0.05-0.1,0.07-0.17,0.07c-0.07,0-0.13-0.02-0.17-0.07c-0.04-0.05-0.07-0.1-0.07-0.17v-3.5
			c0-0.34-0.06-0.66-0.17-0.94c-0.11-0.28-0.29-0.5-0.53-0.67c-0.24-0.17-0.56-0.25-0.96-0.25c-0.34,0-0.68,0.08-1.01,0.25
			s-0.6,0.39-0.81,0.67c-0.21,0.28-0.32,0.59-0.32,0.94v3.5c0,0.06-0.02,0.12-0.07,0.17c-0.05,0.05-0.1,0.07-0.17,0.07
			c-0.07,0-0.13-0.02-0.17-0.07c-0.04-0.05-0.07-0.1-0.07-0.17v-8.4c0-0.06,0.02-0.12,0.07-0.17c0.05-0.05,0.1-0.07,0.17-0.07
			c0.07,0,0.13,0.02,0.17,0.07c0.04,0.05,0.07,0.1,0.07,0.17v4.19l-0.3,0.58c0-0.29,0.07-0.56,0.22-0.83
			c0.14-0.26,0.33-0.5,0.57-0.7c0.24-0.2,0.5-0.36,0.79-0.48C22.84,10.31,23.13,10.25,23.42,10.25z"/>
	</g>
	<g>
		<path fill="#808285" d="M2.62,2.82c0.48,0,0.88,0.1,1.19,0.31c0.32,0.21,0.55,0.49,0.71,0.84c0.16,0.35,0.23,0.74,0.23,1.16v3.5
			c0,0.06-0.02,0.12-0.07,0.17c-0.05,0.05-0.1,0.07-0.17,0.07c-0.07,0-0.13-0.02-0.17-0.07C4.29,8.76,4.27,8.7,4.27,8.64v-3.5
			c0-0.34-0.06-0.66-0.17-0.94C3.99,3.92,3.82,3.7,3.58,3.53C3.34,3.36,3.02,3.28,2.62,3.28c-0.34,0-0.68,0.08-1.01,0.25
			S1.01,3.92,0.8,4.2C0.59,4.48,0.48,4.79,0.48,5.14v3.5c0,0.06-0.02,0.12-0.07,0.17C0.36,8.86,0.3,8.88,0.24,8.88
			c-0.07,0-0.13-0.02-0.17-0.07C0.02,8.76,0,8.7,0,8.64v-8.4c0-0.06,0.02-0.12,0.07-0.17C0.12,0.02,0.18,0,0.24,0
			c0.07,0,0.13,0.02,0.17,0.07c0.04,0.05,0.07,0.1,0.07,0.17v4.19L0.18,5c0-0.29,0.07-0.56,0.22-0.83c0.14-0.26,0.33-0.5,0.57-0.7
			c0.24-0.2,0.5-0.36,0.79-0.48C2.04,2.88,2.33,2.82,2.62,2.82z"/>
		<path fill="#808285" d="M11.65,2.89c0.07,0,0.13,0.02,0.17,0.07s0.07,0.1,0.07,0.17v5.51c0,0.06-0.02,0.12-0.07,0.17
			c-0.05,0.05-0.1,0.07-0.17,0.07c-0.07,0-0.13-0.02-0.17-0.07c-0.04-0.05-0.07-0.1-0.07-0.17v-1.7l0.19-0.16
			c0,0.26-0.06,0.52-0.19,0.78c-0.13,0.26-0.3,0.5-0.53,0.72C10.66,8.5,10.4,8.67,10.09,8.8C9.79,8.93,9.46,9,9.11,9
			C8.57,9,8.09,8.86,7.67,8.58C7.25,8.3,6.92,7.92,6.68,7.44C6.44,6.96,6.32,6.42,6.32,5.82c0-0.61,0.12-1.15,0.37-1.61
			c0.24-0.47,0.58-0.84,1-1.1s0.89-0.4,1.42-0.4c0.34,0,0.67,0.06,0.97,0.19c0.3,0.12,0.57,0.3,0.8,0.52
			c0.23,0.22,0.41,0.49,0.53,0.79s0.19,0.63,0.19,0.98l-0.19-0.3V3.13c0-0.06,0.02-0.12,0.07-0.17S11.58,2.89,11.65,2.89z
			 M9.13,8.54c0.45,0,0.85-0.12,1.2-0.35s0.63-0.56,0.83-0.97c0.2-0.41,0.3-0.88,0.3-1.4c0-0.5-0.1-0.95-0.3-1.35
			c-0.2-0.4-0.48-0.72-0.83-0.96c-0.35-0.24-0.75-0.35-1.2-0.35c-0.44,0-0.84,0.11-1.19,0.34S7.31,4.04,7.11,4.44
			C6.91,4.84,6.8,5.3,6.8,5.82s0.1,0.99,0.3,1.4c0.2,0.41,0.48,0.74,0.83,0.97S8.68,8.54,9.13,8.54z"/>
		<path fill="#808285" d="M16.61,2.7c0.5,0,0.91,0.1,1.23,0.3c0.32,0.2,0.55,0.47,0.7,0.82c0.15,0.34,0.22,0.73,0.22,1.15v3.67
			c0,0.06-0.02,0.12-0.07,0.17c-0.05,0.05-0.1,0.07-0.17,0.07c-0.07,0-0.13-0.02-0.17-0.07c-0.04-0.05-0.07-0.1-0.07-0.17V5.02
			c0-0.34-0.06-0.66-0.17-0.94c-0.12-0.28-0.3-0.5-0.55-0.67s-0.58-0.25-0.99-0.25c-0.35,0-0.7,0.08-1.03,0.25s-0.61,0.39-0.83,0.67
			c-0.22,0.28-0.33,0.59-0.33,0.94v3.62c0,0.06-0.02,0.12-0.07,0.17c-0.05,0.05-0.1,0.07-0.17,0.07c-0.07,0-0.13-0.02-0.17-0.07
			c-0.04-0.05-0.07-0.1-0.07-0.17V3.13c0-0.06,0.02-0.12,0.07-0.17c0.05-0.05,0.1-0.07,0.17-0.07c0.07,0,0.13,0.02,0.17,0.07
			c0.04,0.05,0.07,0.1,0.07,0.17v1.18l-0.3,0.58c0-0.29,0.08-0.56,0.23-0.83c0.15-0.26,0.35-0.5,0.6-0.7s0.52-0.36,0.82-0.48
			C16.01,2.76,16.31,2.7,16.61,2.7z"/>
	</g>
</g>
</svg>
